<?xml version="1.0" encoding="UTF-8"?>
<svg id="Camada_2" data-name="Camada 2" xmlns="http://www.w3.org/2000/svg" viewBox="0 0 1047.53 713.68" fill="#000000">
  <g>
    <path d="M11.85,569.03c-3.41,0-6.24-1.16-8.48-3.48-2.25-2.32-3.37-5.19-3.37-8.59v-157.25c0-3.4,1.16-6.27,3.48-8.59,2.32-2.32,5.11-3.48,8.36-3.48s6.27,1.16,8.59,3.48c2.32,2.32,3.48,5.19,3.48,8.59v145.17h84.08c3.4,0,6.27,1.16,8.59,3.48,2.32,2.32,3.48,5.19,3.48,8.59s-1.16,6.27-3.48,8.59c-2.32,2.32-5.19,3.48-8.59,3.48H11.85Z"/>
    <path d="M206.49,569.96c-12.85,0-24.27-2.75-34.26-8.25-9.99-5.49-17.81-13.08-23.46-22.76-5.65-9.68-8.48-20.79-8.48-33.33s2.67-23.88,8.01-33.56c5.34-9.68,12.73-17.26,22.18-22.76,9.44-5.49,20.28-8.25,32.52-8.25s22.45,2.67,31.12,8.01c8.67,5.34,15.29,12.7,19.86,22.07,4.57,9.37,6.85,20.17,6.85,32.4,0,2.94-1.01,5.38-3.02,7.32-2.01,1.94-4.57,2.9-7.66,2.9h-93.61v-18.58h92.91l-9.52,6.5c-.16-7.74-1.71-14.67-4.65-20.79-2.94-6.12-7.12-10.95-12.54-14.52-5.42-3.56-12-5.34-19.74-5.34-8.83,0-16.38,1.94-22.65,5.81-6.27,3.87-11.03,9.17-14.28,15.91-3.25,6.74-4.88,14.36-4.88,22.88s1.93,16.11,5.81,22.76c3.87,6.66,9.21,11.93,16.03,15.79,6.81,3.87,14.63,5.81,23.46,5.81,4.8,0,9.72-.89,14.75-2.67,5.03-1.78,9.09-3.83,12.19-6.16,2.32-1.7,4.84-2.59,7.55-2.67,2.71-.08,5.07.74,7.08,2.44,2.63,2.32,4.03,4.88,4.18,7.66.15,2.79-1.09,5.19-3.72,7.2-5.27,4.18-11.81,7.59-19.63,10.22-7.82,2.63-15.29,3.95-22.41,3.95Z"/>
    <path d="M339.35,569.96c-11.3,0-21.45-2.82-30.43-8.48-8.98-5.65-16.07-13.32-21.25-22.99-5.19-9.68-7.78-20.63-7.78-32.87s2.82-23.23,8.48-32.98c5.65-9.76,13.32-17.46,22.99-23.11,9.68-5.65,20.56-8.48,32.63-8.48s22.92,2.83,32.52,8.48c9.6,5.65,17.22,13.36,22.88,23.11,5.65,9.76,8.48,20.75,8.48,32.98h-9.06c0,12.23-2.6,23.19-7.78,32.87-5.19,9.68-12.27,17.34-21.25,22.99-8.98,5.65-19.13,8.48-30.43,8.48ZM343.99,549.05c7.9,0,14.94-1.89,21.14-5.69,6.19-3.79,11.07-8.98,14.63-15.56,3.56-6.58,5.34-13.97,5.34-22.18s-1.78-15.83-5.34-22.41c-3.56-6.58-8.44-11.77-14.63-15.56-6.2-3.79-13.24-5.69-21.14-5.69s-14.75,1.9-21.02,5.69c-6.27,3.8-11.23,8.98-14.86,15.56-3.64,6.58-5.46,14.05-5.46,22.41s1.82,15.6,5.46,22.18c3.64,6.58,8.59,11.77,14.86,15.56,6.27,3.8,13.28,5.69,21.02,5.69ZM396.02,569.26c-3.41,0-6.23-1.12-8.48-3.37-2.25-2.24-3.37-5.07-3.37-8.48v-35.54l4.41-24.62,19.28,8.36v51.8c0,3.41-1.13,6.24-3.37,8.48-2.25,2.25-5.07,3.37-8.48,3.37Z"/>
    <path d="M435.51,466.59c-3.25,0-5.89-.93-7.9-2.79-2.01-1.86-3.02-4.18-3.02-6.97,0-3.1,1-5.57,3.02-7.43,2.01-1.86,4.65-2.79,7.9-2.79h57.37c3.25,0,5.88.93,7.9,2.79,2.01,1.86,3.02,4.34,3.02,7.43,0,2.79-1.01,5.11-3.02,6.97-2.01,1.86-4.65,2.79-7.9,2.79h-57.37ZM456.87,569.03c-2.94,0-5.57-1.08-7.9-3.25-2.32-2.17-3.48-5.03-3.48-8.59v-114.51c0-11.15,2.21-20.83,6.62-29.03,4.41-8.21,10.57-14.59,18.47-19.16,7.9-4.57,17.03-6.85,27.41-6.85,3.4,0,6.23,1.01,8.48,3.02,2.24,2.01,3.37,4.57,3.37,7.66s-1.13,5.46-3.37,7.55c-2.25,2.09-5.07,3.14-8.48,3.14-5.73,0-10.76,1.32-15.1,3.95-4.34,2.64-7.7,6.27-10.1,10.92-2.4,4.65-3.6,10.14-3.6,16.49v116.83c0,3.56-1.09,6.43-3.25,8.59-2.17,2.17-5.19,3.25-9.06,3.25Z"/>
    <path d="M557.68,569.03c-2.48,0-4.76-.73-6.85-2.21-2.09-1.47-3.52-3.29-4.3-5.46l-34.38-103.13c-1.24-4.8-1.2-8.71.12-11.73,1.31-3.02,4.22-4.53,8.71-4.53,2.94,0,5.38.81,7.32,2.44,1.93,1.63,3.52,4.38,4.76,8.24l29.27,91.52h-8.13l27.64-93.37c.77-2.63,2.09-4.76,3.95-6.39,1.86-1.63,4.41-2.44,7.66-2.44s5.61.81,7.55,2.44c1.93,1.63,3.21,3.76,3.83,6.39l22.53,87.8h-3.48l27.41-85.94c2.17-7.12,6.19-10.68,12.08-10.68,4.33,0,7.28,1.51,8.82,4.53,1.55,3.02,1.47,6.93-.23,11.73l-34.38,103.13c-.62,2.17-1.94,3.99-3.95,5.46-2.02,1.47-4.34,2.21-6.97,2.21-2.48,0-4.8-.73-6.97-2.21-2.17-1.47-3.56-3.29-4.18-5.46l-23.92-88.5h2.32l-25.09,88.5c-.62,2.17-1.97,3.99-4.06,5.46-2.09,1.47-4.45,2.21-7.09,2.21Z"/>
    <path d="M711.67,421.3c-4.18,0-7.78-1.51-10.8-4.53-3.02-3.02-4.53-6.62-4.53-10.8s1.51-7.78,4.53-10.8c3.02-3.02,6.62-4.53,10.8-4.53s7.78,1.51,10.8,4.53c3.02,3.02,4.53,6.62,4.53,10.8s-1.51,7.78-4.53,10.8c-3.02,3.02-6.62,4.53-10.8,4.53ZM711.67,569.03c-3.41,0-6.24-1.12-8.48-3.37-2.25-2.24-3.37-5.07-3.37-8.48v-103.36c0-3.56,1.12-6.42,3.37-8.59,2.24-2.17,5.07-3.25,8.48-3.25s6.42,1.08,8.59,3.25c2.17,2.17,3.25,5.03,3.25,8.59v103.36c0,3.41-1.09,6.24-3.25,8.48-2.17,2.25-5.03,3.37-8.59,3.37Z"/>
    <path d="M779.5,569.26c-3.41,0-6.24-1.12-8.48-3.37-2.25-2.24-3.37-5.07-3.37-8.48v-103.59c0-3.56,1.12-6.42,3.37-8.59,2.24-2.17,5.07-3.25,8.48-3.25s6.42,1.08,8.59,3.25c2.17,2.17,3.25,5.03,3.25,8.59v103.59c0,3.41-1.09,6.24-3.25,8.48-2.17,2.25-5.03,3.37-8.59,3.37ZM874.96,569.26c-3.41,0-6.23-1.12-8.48-3.37-2.25-2.24-3.37-5.07-3.37-8.48v-57.14c0-8.83-1.63-16.03-4.88-21.6-3.25-5.57-7.63-9.72-13.12-12.43-5.5-2.71-11.81-4.06-18.93-4.06-6.5,0-12.39,1.32-17.65,3.95-5.27,2.64-9.45,6.16-12.54,10.57-3.1,4.41-4.64,9.49-4.64,15.21h-14.63c0-9.76,2.36-18.46,7.09-26.13,4.72-7.66,11.19-13.74,19.39-18.23,8.2-4.49,17.42-6.74,27.64-6.74s20.24,2.28,28.69,6.85c8.44,4.57,15.1,11.26,19.98,20.09,4.88,8.83,7.32,19.67,7.32,32.52v57.14c0,3.41-1.12,6.24-3.37,8.48-2.25,2.25-5.07,3.37-8.48,3.37Z"/>
    <path d="M979.01,569.96c-11.61,0-21.87-2.75-30.78-8.25-8.91-5.49-15.91-13.08-21.02-22.76-5.11-9.68-7.66-20.79-7.66-33.33s2.75-23.88,8.24-33.56c5.49-9.68,13.04-17.26,22.65-22.76,9.6-5.49,20.67-8.25,33.22-8.25s23.38,2.75,32.98,8.25c9.6,5.5,17.15,13.09,22.65,22.76,5.49,9.68,8.25,20.87,8.25,33.56h-13.7c0,12.54-2.36,23.66-7.08,33.33-4.73,9.68-11.19,17.27-19.39,22.76-8.21,5.5-17.65,8.25-28.34,8.25ZM983.19,621.75c-11,0-21.29-2.17-30.89-6.5-9.6-4.34-17.73-10.68-24.39-19.05-2.01-2.64-2.75-5.34-2.21-8.13.54-2.79,2.05-5.03,4.53-6.74,2.79-1.86,5.69-2.48,8.71-1.86,3.02.62,5.46,2.17,7.32,4.64,4.18,5.26,9.44,9.37,15.79,12.31,6.35,2.94,13.55,4.41,21.6,4.41,7.43,0,14.29-1.78,20.56-5.34,6.27-3.56,11.26-8.83,14.98-15.79,3.72-6.97,5.57-15.48,5.57-25.55v-32.98l7.66-20.44,15.1,4.88v50.17c0,12.23-2.71,23.34-8.13,33.33-5.42,9.99-12.97,17.92-22.65,23.81-9.68,5.88-20.87,8.83-33.56,8.83ZM983.66,549.05c8.05,0,15.17-1.86,21.37-5.57,6.19-3.72,11.03-8.83,14.52-15.33,3.48-6.5,5.23-14.01,5.23-22.53s-1.74-16.06-5.23-22.65c-3.49-6.58-8.33-11.73-14.52-15.45-6.2-3.72-13.32-5.57-21.37-5.57s-15.18,1.86-21.37,5.57c-6.19,3.72-11.07,8.87-14.63,15.45-3.56,6.58-5.34,14.13-5.34,22.65s1.78,16.03,5.34,22.53c3.56,6.5,8.44,11.61,14.63,15.33,6.19,3.72,13.32,5.57,21.37,5.57Z"/>
  </g>
  <path d="M623.25,344.93c-30.05,4.94-60.59,1.83-85.71-15.58-14.47-10.03-26.32-24.68-36.61-38.91-8.37-11.57-15.6-23.46-23.59-35.23l-5.6-8.25c-3.33,2.32-6.07,4.51-9.06,7.07-7.1,6.08-14.23,11.8-21.76,17.29-1.67,1.22-4.08.92-5.22-.41-1.23-1.45-1.12-3.53.1-5.24l10.94-11.06,17.84-18.41-23.92-34.85c-.88-1.28-1.61-2.57-.69-3.94.57-.85,2.74-1.51,3.78-.71,1.17.91,2.09,2.03,2.99,3.22l22.87,30.45c4.96-7.18,9.22-14.21,11.94-22.19,1.66-4.87,2.48-9.8,3.61-14.82,6.92-34.05,23.14-52.29,49.18-73.31,23.22-18.74,42.98-36.07,59.87-60.97,7.54-11.12,14.02-22.42,18.78-34.97,2.92-7.69,5.06-15.19,7.34-23.04.11-.37.78-1.23,1.1-1.06s.74,1,.71,1.41c-.99,11.89-3.82,23.02-7.22,34.38-1.85,6.18-2.37,12.52-2.68,18.92l-.57,11.6-.85,43.18c-.28,14.05-1.07,27.43-2.79,41.34-3.59,29.09-15.66,54.26-44.79,64.48-5.77,2.02-11.33,3.45-17.32,4.78l-26.72,5.91c-14.04,3.1-27.18,8.34-39.58,15.92,2.78,3.67,6.37,5.97,10.38,7.97,9.3,4.64,19.87,5.47,30.15,4.06l11.44-1.57c22.6-3.09,43.73,6.09,62.07,18.42,8.66,5.82,16.27,12.39,24.6,18.63l15.31,11.45c13.36,10,28.16,17.06,44.14,21.93l8.49,2.58c.33.1.9.43,1.13.58.29.19-.13,1.42-.61,1.58l-18.07,6.4c-14.81,5.25-29.6,8.36-45.38,10.95ZM491.8,213.38c8.02-5.8,16.26-8.84,25.29-10.94l23.8-5.55c10.76-2.51,19.25-9.26,24.99-18.54,11.61-18.75,16.96-40.46,21.81-61.82l4.3-20.6,7.65-34.3c-11.67,18.65-30.72,38.95-47.41,53.38l-14.81,12.8c-14.35,12.4-25.34,23.18-33.85,40.49-4.13,8.5-6.77,17.05-8.13,26.38-.93,6.42-2.26,12.42-3.64,18.7ZM662.34,326.74c-12.3-4.63-22.53-10.25-32.7-17.26l-29.53-22.93c-15.88-12.46-32.66-22.43-53.37-23.78-13.98-.91-23.1,3.2-37.15,3.11l8.16,12.43c6.99,10.65,14.14,20.59,23.7,29.14,33.88,30.28,78.97,33.75,120.89,19.28Z"/>
  <path d="M431.88,151.61c-9.57-.73-16.7-6.46-20.81-14.72-5.34-10.71-3.99-23.9,3.98-33.04,9.6-11.01,26.51-10.82,36.26-.04s10.3,26.98,1.26,38.37c-5,6.3-12.44,10.06-20.69,9.43Z"/>
</svg>
